<?xml version="1.0" encoding="utf-8"?>
<!-- Generator: Adobe Illustrator 19.2.0, SVG Export Plug-In . SVG Version: 6.00 Build 0)  -->
<svg version="1.1" xmlns="http://www.w3.org/2000/svg" xmlns:xlink="http://www.w3.org/1999/xlink" x="0px" y="0px"
	 viewBox="0 0 1417.3 1137.3" style="enable-background:new 0 0 1417.3 1137.3;" xml:space="preserve">
<style type="text/css">
	.st0{fill:none;stroke:#000000;stroke-width:0.8;}
</style>
<g id="all">
	<polygon class="st0" points="308.7,197.1 308.7,160.5 313.4,160.5 313.4,192.9 329.3,192.9 329.3,197.1 	"/>
	<path class="st0" d="M530.8,193.5c2.9,0,5-1.2,6.3-3.6c1.3-2.4,2-6.1,2-11.1c0-5.1-0.7-8.8-2-11.1c-1.4-2.4-3.4-3.6-6.3-3.6
		c-5.6,0-8.4,4.9-8.4,14.7C522.4,188.6,525.2,193.5,530.8,193.5z M530.8,197.6c-8.9,0-13.3-6.3-13.3-18.9c0-12.5,4.4-18.8,13.4-18.8
		c4.3,0,7.5,1.6,9.8,4.9c2.3,3.3,3.4,7.9,3.4,13.9c0,6-1.1,10.7-3.4,13.9C538.3,195.9,535,197.6,530.8,197.6z"/>
	<path class="st0" d="M1020.4,178h4.1c2.8,0,5-0.6,6.3-1.6c1.3-1.1,2-2.9,2-5.2c0-2.4-0.7-4-2-5.1c-1.3-1-3.5-1.5-6.5-1.5h-4V178z
		 M1020.4,182v15.1h-4.7v-36.6h8.9c8.7,0,13,3.5,13,10.4c0,4.8-2.4,8.1-7.2,9.8l9.9,16.4h-5.5l-8.8-15.1H1020.4z"/>
	<polygon class="st0" points="400.2,267.7 379.1,267.7 379.1,231.2 400.2,231.2 400.2,235.3 383.8,235.3 383.8,246.6 399.2,246.6 
		399.2,250.6 383.8,250.6 383.8,263.6 400.2,263.6 	"/>
	<path class="st0" d="M670.3,267.7l-6.9-32h-0.2c0.3,4.4,0.5,7.8,0.5,10.1v21.9h-3.8v-36.6h6.2l6.2,29.8h0.1l6.2-29.8h6.3v36.6h-3.8
		v-22.2c0-1.7,0.1-5,0.3-9.8h-0.2l-7.1,31.9H670.3z"/>
	<path class="st0" d="M457.8,338.4l-6.9-32h-0.2c0.3,4.4,0.4,7.8,0.4,10.1v21.9h-3.8v-36.6h6.2l6.2,29.8h0.1l6.2-29.8h6.3v36.6h-3.8
		v-22.2c0-1.7,0.1-5,0.3-9.8h-0.2l-7.1,32H457.8z"/>
	<polygon class="st0" points="965.3,338.4 945.9,338.4 945.9,335.3 953.3,334.8 953.3,305.4 945.9,304.9 945.9,301.8 965.3,301.8 
		965.3,304.9 958,305.4 958,334.8 965.3,335.3 	"/>
	<path class="st0" d="M524.4,390.8h4.2c3.3,0,5.7-0.6,7.1-1.8c1.4-1.2,2.1-3.1,2.1-5.6c0-4.6-2.8-7-8.4-7h-5V390.8z M524.4,394.8
		V409h-4.6v-36.5h10.1c8.6,0,12.8,3.6,12.8,10.7c0,3.6-1.2,6.5-3.5,8.6c-2.3,2-5.7,3.1-10.1,3.1H524.4z"/>
	<path class="st0" d="M1156.3,407.8v-4.4c3.5,1.4,7,2.1,10.4,2.1c5.8,0,8.8-2,8.8-6c0-1.7-0.6-3.1-1.8-4c-1.2-0.9-3.6-2-7.1-3.3
		c-3.5-1.2-6-2.7-7.5-4.4c-1.5-1.7-2.3-3.9-2.3-6.6c0-2.9,1.1-5.2,3.2-6.8c2.1-1.6,5.1-2.5,8.8-2.5c3.8,0,7.3,0.7,10.4,2l-1.6,4.1
		c-3.2-1.3-6.2-1.9-9-1.9c-4.9,0-7.3,1.7-7.3,5.2c0,1.7,0.5,3.1,1.6,4.1c1.1,1,3.3,2.1,6.8,3.3c4.1,1.5,6.8,3,8.2,4.5
		c1.4,1.6,2.1,3.6,2.1,6c0,3.2-1.2,5.7-3.5,7.5c-2.3,1.8-5.6,2.7-9.8,2.7C1162.2,409.5,1158.8,408.9,1156.3,407.8z"/>
	<path class="st0" d="M1251.2,372.4v23.7c0,4.3-1,7.7-3.1,9.9c-2.1,2.3-5.2,3.5-9.2,3.5c-8.1,0-12.1-4.5-12.1-13.5v-23.5h4.6v23.3
		c0,6.5,2.6,9.7,7.7,9.7c4.9,0,7.4-3.2,7.5-9.7v-23.3H1251.2z"/>
	<path class="st0" d="M665.1,517.8v28.6h2.4c8.9,0,13.3-4.8,13.3-14.5c0-9.4-4.1-14.1-12.3-14.1H665.1z M660.4,550.3v-36.5h8.6
		c5.3,0,9.4,1.6,12.3,4.7c2.9,3.2,4.4,7.6,4.4,13.2c0,6-1.5,10.6-4.6,13.8c-3.1,3.2-7.5,4.8-13.2,4.8H660.4z"/>
	<path class="st0" d="M814,617.4c2.9,0,5-1.2,6.3-3.6c1.3-2.4,2-6.1,2-11.1c0-5.1-0.7-8.8-2-11.1c-1.4-2.4-3.4-3.6-6.3-3.6
		c-5.6,0-8.4,4.9-8.4,14.7C805.7,612.5,808.5,617.4,814,617.4z M814,621.5c-8.9,0-13.3-6.3-13.3-18.9c0-12.5,4.4-18.8,13.3-18.8
		c4.3,0,7.5,1.6,9.8,4.9c2.3,3.3,3.4,7.9,3.4,13.9s-1.1,10.7-3.4,13.9C821.6,619.9,818.3,621.5,814,621.5z"/>
	<polygon class="st0" points="471,691.6 450,691.6 450,655.1 471,655.1 471,659.2 454.6,659.2 454.6,670.5 470,670.5 470,674.5 
		454.6,674.5 454.6,687.5 471,687.5 	"/>
	<polygon class="st0" points="521.2,691.6 521.2,655.1 525.9,655.1 525.9,687.5 541.7,687.5 541.7,691.6 	"/>
	<path class="st0" d="M1097.3,688.1c2.9,0,5-1.2,6.3-3.6c1.3-2.4,2-6.1,2-11.1c0-5-0.7-8.8-2-11.1c-1.4-2.4-3.4-3.6-6.3-3.6
		c-5.6,0-8.4,4.9-8.4,14.7C1088.9,683.2,1091.7,688.1,1097.3,688.1z M1097.3,692.1c-8.9,0-13.3-6.3-13.3-18.9
		c0-12.5,4.5-18.8,13.4-18.8c4.3,0,7.5,1.6,9.8,4.9c2.3,3.3,3.4,7.9,3.4,13.9c0,6-1.2,10.7-3.5,13.9
		C1104.8,690.5,1101.6,692.1,1097.3,692.1z"/>
	<path class="st0" d="M453.9,743.2h4.1c2.9,0,5-0.5,6.3-1.6c1.4-1.1,2-2.9,2-5.2c0-2.4-0.7-4-2-5.1c-1.3-1-3.5-1.5-6.5-1.5h-4V743.2
		z M453.9,747.2v15.1h-4.7v-36.6h8.9c8.7,0,13,3.5,13,10.4c0,4.8-2.4,8.1-7.2,9.8l9.9,16.4h-5.5l-8.8-15.1H453.9z"/>
	<path class="st0" d="M731.3,761.1v-4.5c3.5,1.4,7,2.2,10.3,2.2c5.8,0,8.8-2,8.8-6c0-1.7-0.6-3.1-1.8-4c-1.2-0.9-3.6-2-7.1-3.3
		c-3.5-1.2-6-2.7-7.5-4.4c-1.5-1.7-2.3-3.9-2.3-6.6c0-2.9,1.1-5.2,3.2-6.8c2.1-1.6,5.1-2.5,8.8-2.5c3.8,0,7.3,0.6,10.4,1.9l-1.6,4.1
		c-3.2-1.3-6.2-1.9-9-1.9c-4.9,0-7.3,1.7-7.3,5.2c0,1.7,0.5,3.1,1.6,4.1c1.1,1,3.3,2.1,6.8,3.3c4.1,1.5,6.8,3,8.2,4.5
		c1.4,1.6,2.1,3.6,2.1,6c0,3.2-1.2,5.7-3.5,7.5c-2.3,1.8-5.6,2.7-9.8,2.7C737.3,762.8,733.8,762.2,731.3,761.1z"/>
	<polygon class="st0" points="1036.1,762.3 1016.7,762.3 1016.7,759.2 1024.1,758.7 1024.1,729.3 1016.7,728.8 1016.7,725.8 
		1036.1,725.8 1036.1,728.8 1028.8,729.3 1028.8,758.7 1036.1,759.2 	"/>
	<polygon class="st0" points="603.9,833 599.2,833 599.2,800.5 588.7,800.5 588.7,796.4 614.3,796.4 614.3,800.5 603.9,800.5 	"/>
	<path class="st0" d="M960.5,817.5l-3.3-10.6c-0.7-2.1-1.2-3.9-1.6-5.6c-0.3,1.6-0.7,3.2-1.2,4.6l-3.6,11.7H960.5z M965.4,833
		l-3.6-11.3h-12.3l-3.7,11.3h-4.8l12.1-36.7h4.9l12.1,36.7H965.4z"/>
	<path class="st0" d="M528.7,903.6l-6.9-32h-0.2c0.3,4.4,0.4,7.8,0.4,10.2v21.8h-3.8v-36.5h6.2l6.2,29.8h0.1l6.2-29.8h6.3v36.5h-3.8
		v-22.2c0-1.7,0.1-5,0.3-9.8h-0.2l-7.1,31.9H528.7z"/>
	<polygon class="st0" points="966.8,903.6 945.7,903.6 945.7,867.1 966.8,867.1 966.8,871.2 950.4,871.2 950.4,882.5 965.8,882.5 
		965.8,886.5 950.4,886.5 950.4,899.5 966.8,899.5 	"/>
	<polygon class="st0" points="391.4,974.3 386.7,974.3 386.7,941.8 376.3,941.8 376.3,937.7 401.8,937.7 401.8,941.8 391.4,941.8 	
		"/>
	<path class="st0" d="M826.7,969.2v4c-2.4,1-5.4,1.5-8.9,1.5c-5.2,0-9.1-1.6-11.8-4.9c-2.7-3.3-4.1-7.9-4.1-13.9
		c0-5.8,1.5-10.3,4.5-13.7c3-3.4,7.1-5.1,12.2-5.1c3.7,0,6.9,0.7,9.6,2.1l-2,3.9c-2.6-1.3-5.1-2-7.6-2c-3.6,0-6.4,1.3-8.6,4
		c-2.1,2.6-3.2,6.2-3.2,10.7c0,4.8,1,8.4,3,10.9c2,2.5,4.9,3.8,8.8,3.8C820.7,970.7,823.5,970.2,826.7,969.2z"/>
</g>
<g id="oclock">
	<path class="st0" d="M884.9,970.7c2.9,0,5-1.2,6.3-3.6c1.3-2.4,2-6.1,2-11.1c0-5-0.7-8.8-2-11.1c-1.4-2.4-3.4-3.6-6.3-3.6
		c-5.6,0-8.4,4.9-8.4,14.7C876.5,965.8,879.3,970.7,884.9,970.7z M884.9,974.8c-8.9,0-13.3-6.3-13.3-18.9c0-12.5,4.4-18.8,13.3-18.8
		c4.3,0,7.5,1.6,9.8,4.9c2.3,3.3,3.4,7.9,3.4,13.9c0,6-1.2,10.7-3.4,13.9C892.4,973.1,889.1,974.8,884.9,974.8z"/>
	<path class="st0" d="M968.4,969.2v4c-2.4,1-5.4,1.5-9,1.5c-5.1,0-9.1-1.6-11.8-4.9c-2.7-3.3-4.1-7.9-4.1-13.9
		c0-5.8,1.5-10.3,4.5-13.7c3-3.4,7.1-5.1,12.2-5.1c3.7,0,6.9,0.7,9.6,2.1l-1.9,3.9c-2.6-1.3-5.1-2-7.6-2c-3.6,0-6.4,1.3-8.6,4
		c-2.1,2.6-3.2,6.2-3.2,10.7c0,4.8,1,8.4,3,10.9c2,2.5,4.9,3.8,8.8,3.8C962.4,970.7,965.1,970.2,968.4,969.2z"/>
	<polygon class="st0" points="1016.9,974.3 1016.9,937.7 1021.6,937.7 1021.6,970.1 1037.5,970.1 1037.5,974.3 	"/>
	<path class="st0" d="M1097.3,970.7c2.9,0,5-1.2,6.3-3.6c1.3-2.4,2-6.1,2-11.1c0-5-0.7-8.8-2-11.1c-1.4-2.4-3.4-3.6-6.3-3.6
		c-5.6,0-8.4,4.9-8.4,14.7C1088.9,965.8,1091.7,970.7,1097.3,970.7z M1097.3,974.8c-8.9,0-13.3-6.3-13.3-18.9
		c0-12.5,4.5-18.8,13.4-18.8c4.3,0,7.5,1.6,9.8,4.9c2.3,3.3,3.4,7.9,3.4,13.9c0,6-1.2,10.7-3.5,13.9
		C1104.8,973.1,1101.6,974.8,1097.3,974.8z"/>
	<path class="st0" d="M1180.8,969.2v4c-2.4,1-5.4,1.5-8.9,1.5c-5.1,0-9.1-1.6-11.8-4.9c-2.7-3.3-4.1-7.9-4.1-13.9
		c0-5.8,1.5-10.3,4.5-13.7c3-3.4,7.1-5.1,12.2-5.1c3.7,0,6.9,0.7,9.6,2.1l-1.9,3.9c-2.6-1.3-5.1-2-7.6-2c-3.6,0-6.4,1.3-8.6,4
		c-2.1,2.6-3.2,6.2-3.2,10.7c0,4.8,1,8.4,3,10.9c2,2.5,4.9,3.8,8.8,3.8C1174.8,970.7,1177.6,970.2,1180.8,969.2z"/>
	<polygon class="st0" points="1253.5,974.3 1248.2,974.3 1237,956.8 1233.5,959.7 1233.5,974.3 1228.8,974.3 1228.8,937.7 
		1233.5,937.7 1233.5,956 1236.5,951.8 1247.8,937.7 1253.1,937.7 1240,953.6 	"/>
	<path class="st0" d="M901,939.8c1.6-2.2,3-4.7,4.4-7.5h5.5v0.5c-1.9,2.9-4.1,5.4-6.8,7.7h-3V939.8z"/>
</g>
<g id="three_x5F_hour">
	<polygon class="st0" points="462.2,974.3 457.5,974.3 457.5,941.8 447.1,941.8 447.1,937.7 472.6,937.7 472.6,941.8 462.2,941.8 	
		"/>
	<polygon class="st0" points="542.7,974.3 538,974.3 538,957.2 523.4,957.2 523.4,974.3 518.7,974.3 518.7,937.7 523.4,937.7 
		523.4,953.1 538,953.1 538,937.7 542.7,937.7 	"/>
	<path class="st0" d="M595.5,955.2h4.1c2.9,0,5-0.6,6.3-1.6c1.4-1.1,2-2.9,2-5.2c0-2.4-0.7-4-2-5.1c-1.3-1-3.5-1.6-6.5-1.6h-4V955.2
		z M595.5,959.2v15.1h-4.7v-36.6h8.9c8.7,0,13,3.5,13,10.4c0,4.8-2.4,8.1-7.2,9.8l9.9,16.4H610l-8.8-15.1H595.5z"/>
	<polygon class="st0" points="683.5,974.3 662.4,974.3 662.4,937.7 683.5,937.7 683.5,941.8 667.1,941.8 667.1,953.1 682.5,953.1 
		682.5,957.2 667.1,957.2 667.1,970.2 683.5,970.2 	"/>
	<polygon class="st0" points="754.3,974.3 733.2,974.3 733.2,937.7 754.3,937.7 754.3,941.8 737.9,941.8 737.9,953.1 753.3,953.1 
		753.3,957.2 737.9,957.2 737.9,970.2 754.3,970.2 	"/>
</g>
<g id="ten_x5F_hour">
	<polygon class="st0" points="178.9,974.3 174.3,974.3 174.3,941.8 163.8,941.8 163.8,937.7 189.4,937.7 189.4,941.8 178.9,941.8 	
		"/>
	<polygon class="st0" points="258.6,974.3 237.5,974.3 237.5,937.7 258.6,937.7 258.6,941.8 242.2,941.8 242.2,953.1 257.6,953.1 
		257.6,957.2 242.2,957.2 242.2,970.2 258.6,970.2 	"/>
	<path class="st0" d="M330.2,974.3h-5.4L310.3,944h-0.2c0.3,4.6,0.5,8.1,0.5,10.4v19.8h-4.3v-36.6h5.3l14.4,30.1h0.2
		c-0.2-5-0.4-8.4-0.4-10.1v-20h4.4V974.3z"/>
</g>
<g id="nine_x5F_hour">
	<path class="st0" d="M1038.4,903.6h-5.4l-14.5-30.2h-0.2c0.3,4.6,0.4,8.1,0.4,10.4v19.8h-4.3v-36.5h5.3l14.4,30.1h0.2
		c-0.2-5.1-0.4-8.4-0.4-10.1v-20h4.4V903.6z"/>
	<polygon class="st0" points="1106.9,903.6 1087.5,903.6 1087.5,900.5 1094.9,900 1094.9,870.6 1087.5,870.1 1087.5,867.1 
		1106.9,867.1 1106.9,870.1 1099.6,870.6 1099.6,900 1106.9,900.5 	"/>
	<path class="st0" d="M1180,903.6h-5.4l-14.5-30.2h-0.2c0.3,4.6,0.5,8.1,0.5,10.4v19.8h-4.3v-36.5h5.3l14.4,30.1h0.2
		c-0.2-5.1-0.4-8.4-0.4-10.1v-20h4.4V903.6z"/>
	<polygon class="st0" points="1250,903.6 1229,903.6 1229,867.1 1250,867.1 1250,871.2 1233.6,871.2 1233.6,882.5 1249.1,882.5 
		1249.1,886.5 1233.6,886.5 1233.6,899.5 1250,899.5 	"/>
</g>
<g id="eight_x5F_hour">
	<polygon class="st0" points="612.7,903.6 591.6,903.6 591.6,867.1 612.7,867.1 612.7,871.2 596.3,871.2 596.3,882.5 611.7,882.5 
		611.7,886.5 596.3,886.5 596.3,899.5 612.7,899.5 	"/>
	<polygon class="st0" points="682,903.6 662.6,903.6 662.6,900.5 670,900 670,870.6 662.6,870.1 662.6,867.1 682,867.1 682,870.1 
		674.7,870.6 674.7,900 682,900.5 	"/>
	<path class="st0" d="M744.6,884.3h10.6v17.9c-3.2,1.2-6.8,1.9-10.5,1.9c-4.4,0-7.8-1.7-10.2-5c-2.5-3.3-3.7-7.9-3.7-13.8
		c0-5.9,1.4-10.4,4.1-13.8c2.7-3.3,6.4-5,11.1-5c3.2,0,6.1,0.7,8.7,2.1l-1.8,4c-2.4-1.4-4.8-2.1-7-2.1c-3.2,0-5.7,1.3-7.5,3.9
		c-1.8,2.6-2.7,6.2-2.7,10.8c0,9.8,3.3,14.7,9.9,14.7c1.6,0,3.3-0.2,5.1-0.7v-10.9h-5.9V884.3z"/>
	<polygon class="st0" points="826,903.6 821.3,903.6 821.3,886.6 806.7,886.6 806.7,903.6 802,903.6 802,867.1 806.7,867.1 
		806.7,882.5 821.3,882.5 821.3,867.1 826,867.1 	"/>
	<polygon class="st0" points="887.1,903.6 882.5,903.6 882.5,871.2 872,871.2 872,867.1 897.6,867.1 897.6,871.2 887.1,871.2 	"/>
</g>
<g id="seven_x5F_hour">
	<path class="st0" d="M164.8,902.4v-4.5c3.5,1.4,7,2.2,10.4,2.2c5.8,0,8.8-2,8.8-6c0-1.7-0.6-3.1-1.8-4c-1.2-0.9-3.6-2-7.1-3.3
		c-3.5-1.2-6-2.7-7.5-4.4c-1.5-1.7-2.3-3.9-2.3-6.6c0-2.9,1.1-5.2,3.2-6.8c2.1-1.6,5.1-2.5,8.8-2.5c3.8,0,7.3,0.6,10.4,1.9l-1.6,4.1
		c-3.2-1.3-6.2-1.9-9-1.9c-4.9,0-7.3,1.7-7.3,5.2c0,1.7,0.5,3.1,1.6,4.1c1.1,1,3.3,2.1,6.8,3.3c4.1,1.5,6.8,3,8.2,4.5
		c1.4,1.6,2.1,3.6,2.1,6c0,3.2-1.2,5.7-3.5,7.5c-2.3,1.8-5.6,2.7-9.8,2.7C170.7,904.1,167.3,903.5,164.8,902.4z"/>
	<polygon class="st0" points="258.6,903.6 237.5,903.6 237.5,867.1 258.6,867.1 258.6,871.2 242.2,871.2 242.2,882.5 257.6,882.5 
		257.6,886.5 242.2,886.5 242.2,899.5 258.6,899.5 	"/>
	<path class="st0" d="M327.8,867.1h5l-12.2,36.5h-4.7l-12.2-36.5h4.9l7.4,23.2c0.7,2.1,1.4,4.9,2.2,8.4c0.5-2.4,1.3-5.2,2.3-8.5
		L327.8,867.1z"/>
	<polygon class="st0" points="400.2,903.6 379.1,903.6 379.1,867.1 400.2,867.1 400.2,871.2 383.8,871.2 383.8,882.5 399.2,882.5 
		399.2,886.5 383.8,886.5 383.8,899.5 400.2,899.5 	"/>
	<path class="st0" d="M471.8,903.6h-5.4L452,873.4h-0.2c0.3,4.6,0.4,8.1,0.4,10.4v19.8h-4.3v-36.5h5.3l14.4,30.1h0.1
		c-0.2-5.1-0.3-8.4-0.3-10.1v-20h4.3V903.6z"/>
</g>
<g id="five_x5F_hour">
	<polygon class="st0" points="1021.9,833 1017.2,833 1017.2,796.4 1038.2,796.4 1038.2,800.5 1021.9,800.5 1021.9,813.4 
		1037.3,813.4 1037.3,817.5 1021.9,817.5 	"/>
	<polygon class="st0" points="1106.9,833 1087.5,833 1087.5,829.9 1094.9,829.4 1094.9,800 1087.5,799.5 1087.5,796.4 1106.9,796.4 
		1106.9,799.5 1099.6,800 1099.6,829.4 1106.9,829.9 	"/>
	<path class="st0" d="M1177.7,796.4h5l-12.2,36.6h-4.7l-12.2-36.6h4.9l7.4,23.2c0.7,2.1,1.4,4.9,2.2,8.4c0.5-2.4,1.3-5.2,2.3-8.5
		L1177.7,796.4z"/>
	<polygon class="st0" points="1250,833 1229,833 1229,796.4 1250,796.4 1250,800.5 1233.6,800.5 1233.6,811.8 1249.1,811.8 
		1249.1,815.9 1233.6,815.9 1233.6,828.9 1250,828.9 	"/>
</g>
<g id="four_x5F_hour">
	<polygon class="st0" points="667.8,833 663.1,833 663.1,796.4 684.1,796.4 684.1,800.5 667.8,800.5 667.8,813.4 683.2,813.4 
		683.2,817.5 667.8,817.5 	"/>
	<path class="st0" d="M743.2,829.4c2.9,0,5-1.2,6.3-3.6c1.3-2.4,2-6.1,2-11.1c0-5.1-0.7-8.8-2-11.1c-1.4-2.4-3.4-3.6-6.3-3.6
		c-5.6,0-8.4,4.9-8.4,14.7C734.8,824.5,737.6,829.4,743.2,829.4z M743.2,833.5c-8.9,0-13.3-6.3-13.3-18.9c0-12.5,4.4-18.8,13.3-18.8
		c4.3,0,7.5,1.6,9.8,4.9c2.3,3.3,3.4,7.9,3.4,13.9c0,6-1.1,10.7-3.4,13.9C750.7,831.8,747.5,833.5,743.2,833.5z"/>
	<path class="st0" d="M826.2,796.4v23.7c0,4.3-1.1,7.6-3.2,9.9c-2.1,2.3-5.2,3.4-9.2,3.4c-8,0-12.1-4.5-12.1-13.5v-23.6h4.7v23.3
		c0,6.4,2.6,9.7,7.7,9.7c4.9,0,7.4-3.2,7.5-9.7v-23.3H826.2z"/>
	<path class="st0" d="M878.8,813.9h4.1c2.9,0,4.9-0.5,6.3-1.6c1.3-1.1,2-2.9,2-5.2c0-2.4-0.7-4-2-5.1c-1.3-1-3.5-1.6-6.4-1.6h-4
		V813.9z M878.8,817.9V833h-4.7v-36.6h8.9c8.7,0,13,3.5,13,10.4c0,4.8-2.4,8.1-7.2,9.8l9.9,16.4h-5.5l-8.8-15.1H878.8z"/>
</g>
<g id="eleven_x5F_hour">
	<polygon class="st0" points="258.6,903.6 237.5,903.6 237.5,867.1 258.6,867.1 258.6,871.2 242.2,871.2 242.2,882.5 257.6,882.5 
		257.6,886.5 242.2,886.5 242.2,899.5 258.6,899.5 	"/>
	<path class="st0" d="M327.8,867.1h5l-12.2,36.5h-4.7l-12.2-36.5h4.9l7.4,23.2c0.7,2.1,1.4,4.9,2.2,8.4c0.5-2.4,1.3-5.2,2.3-8.5
		L327.8,867.1z"/>
	<polygon class="st0" points="400.2,903.6 379.1,903.6 379.1,867.1 400.2,867.1 400.2,871.2 383.8,871.2 383.8,882.5 399.2,882.5 
		399.2,886.5 383.8,886.5 383.8,899.5 400.2,899.5 	"/>
	<path class="st0" d="M471.8,903.6h-5.4L452,873.4h-0.2c0.3,4.6,0.4,8.1,0.4,10.4v19.8h-4.3v-36.5h5.3l14.4,30.1h0.1
		c-0.2-5.1-0.3-8.4-0.3-10.1v-20h4.3V903.6z"/>
	<polygon class="st0" points="329.4,833 308.3,833 308.3,796.4 329.4,796.4 329.4,800.5 313,800.5 313,811.8 328.4,811.8 
		328.4,815.9 313,815.9 313,828.9 329.4,828.9 	"/>
	<polygon class="st0" points="379.5,833 379.5,796.4 384.2,796.4 384.2,828.8 400.1,828.8 400.1,833 	"/>
</g>
<g id="twelve_x5F_hour">
	<polygon class="st0" points="178.9,833 174.3,833 174.3,800.5 163.8,800.5 163.8,796.4 189.4,796.4 189.4,800.5 178.9,800.5 	"/>
	<path class="st0" d="M245.3,807.8h4.4l3.6,13c1,3.7,1.6,6.2,1.8,7.7c0-0.9,0.6-6,1.6-15.5l1.8-16.6h4.2l-4.7,36.6h-4.8l-4.2-14.5
		c-0.7-2.3-1.2-4.6-1.7-7.1c-0.5,2.9-1.1,5.2-1.6,7.1L242,833h-4.8l-5.1-36.6h4.2l2.2,16.6c0.4,2.9,0.7,6.1,1,9.5
		c0.3,3.4,0.4,5.4,0.4,6c0.4-2.5,1-5.1,1.8-7.8L245.3,807.8z"/>
	<polygon class="st0" points="329.4,833 308.3,833 308.3,796.4 329.4,796.4 329.4,800.5 313,800.5 313,811.8 328.4,811.8 
		328.4,815.9 313,815.9 313,828.9 329.4,828.9 	"/>
	<polygon class="st0" points="379.5,833 379.5,796.4 384.2,796.4 384.2,828.8 400.1,828.8 400.1,833 	"/>
	<path class="st0" d="M469.5,796.4h5L462.2,833h-4.7l-12.2-36.6h4.9l7.4,23.2c0.7,2.1,1.4,4.9,2.2,8.4c0.5-2.4,1.3-5.2,2.3-8.5
		L469.5,796.4z"/>
	<polygon class="st0" points="541.8,833 520.8,833 520.8,796.4 541.8,796.4 541.8,800.5 525.4,800.5 525.4,811.8 540.9,811.8 
		540.9,815.9 525.4,815.9 525.4,828.9 541.8,828.9 	"/>
</g>
<g id="one_x5F_hour">
	<path class="st0" d="M530.8,758.7c2.9,0,5-1.2,6.3-3.6c1.3-2.4,2-6.1,2-11.1c0-5.1-0.7-8.8-2-11.1c-1.4-2.4-3.4-3.6-6.3-3.6
		c-5.6,0-8.4,4.9-8.4,14.7C522.4,753.8,525.2,758.7,530.8,758.7z M530.8,762.8c-8.9,0-13.3-6.3-13.3-18.9c0-12.5,4.4-18.8,13.4-18.8
		c4.3,0,7.5,1.6,9.8,4.9c2.3,3.3,3.4,7.9,3.4,13.9c0,6-1.1,10.7-3.4,13.9C538.3,761.2,535,762.8,530.8,762.8z"/>
	<path class="st0" d="M613.5,762.3h-5.4l-14.5-30.2h-0.2c0.3,4.6,0.4,8.1,0.4,10.4v19.8h-4.3v-36.6h5.3l14.4,30.1h0.1
		c-0.2-5.1-0.3-8.4-0.3-10.1v-20h4.3V762.3z"/>
	<polygon class="st0" points="683.5,762.3 662.4,762.3 662.4,725.8 683.5,725.8 683.5,729.9 667.1,729.9 667.1,741.2 682.5,741.2 
		682.5,745.2 667.1,745.2 667.1,758.2 683.5,758.2 	"/>
</g>
<g id="six_x5F_hour">
	<path class="st0" d="M1085.4,761.1v-4.5c3.5,1.4,7,2.2,10.4,2.2c5.8,0,8.8-2,8.8-6c0-1.7-0.6-3.1-1.8-4c-1.2-0.9-3.6-2-7.1-3.3
		c-3.5-1.2-6-2.7-7.5-4.4c-1.5-1.7-2.3-3.9-2.3-6.6c0-2.9,1.1-5.2,3.2-6.8c2.1-1.6,5.1-2.5,8.8-2.5c3.8,0,7.3,0.6,10.4,1.9l-1.6,4.1
		c-3.2-1.3-6.2-1.9-9-1.9c-4.9,0-7.3,1.7-7.3,5.2c0,1.7,0.5,3.1,1.6,4.1c1.1,1,3.3,2.1,6.8,3.3c4.1,1.5,6.8,3,8.2,4.5
		c1.4,1.6,2.1,3.6,2.1,6c0,3.2-1.2,5.7-3.5,7.5c-2.3,1.8-5.6,2.7-9.8,2.7C1091.4,762.8,1087.9,762.2,1085.4,761.1z"/>
	<polygon class="st0" points="1177.8,762.3 1158.4,762.3 1158.4,759.2 1165.7,758.7 1165.7,729.3 1158.4,728.8 1158.4,725.8 
		1177.8,725.8 1177.8,728.8 1170.4,729.3 1170.4,758.7 1177.8,759.2 	"/>
	<polygon class="st0" points="1252.9,762.3 1247.6,762.3 1238.8,746.4 1229.6,762.3 1224.9,762.3 1236.2,743.2 1225.7,725.8 
		1230.6,725.8 1238.9,739.7 1247.3,725.8 1252,725.8 1241.5,743.1 	"/>
</g>
<g id="two_x5F_hour">
	<polygon class="st0" points="816.3,762.3 811.6,762.3 811.6,729.9 801.2,729.9 801.2,725.8 826.7,725.8 826.7,729.9 816.3,729.9 	
		"/>
	<path class="st0" d="M882.7,737.1h4.4l3.6,13c1,3.7,1.6,6.2,1.8,7.7c0-0.9,0.6-6,1.6-15.5l1.8-16.6h4.2l-4.7,36.6h-4.8l-4.2-14.5
		c-0.7-2.3-1.2-4.6-1.6-7.1c-0.5,2.9-1.1,5.2-1.6,7.1l-3.9,14.4h-4.8l-5.1-36.6h4.2l2.2,16.6c0.4,2.9,0.7,6.1,1,9.4
		c0.3,3.4,0.4,5.4,0.4,6c0.4-2.5,1-5.1,1.8-7.8L882.7,737.1z"/>
	<path class="st0" d="M955.7,758.7c2.9,0,5-1.2,6.3-3.6c1.3-2.4,2-6.1,2-11.1c0-5.1-0.7-8.8-2-11.1c-1.4-2.4-3.4-3.6-6.3-3.6
		c-5.6,0-8.4,4.9-8.4,14.7C947.3,753.8,950.1,758.7,955.7,758.7z M955.7,762.8c-8.9,0-13.3-6.3-13.3-18.9c0-12.5,4.4-18.8,13.3-18.8
		c4.3,0,7.5,1.6,9.8,4.9c2.3,3.3,3.4,7.9,3.4,13.9c0,6-1.2,10.7-3.4,13.9C963.2,761.2,959.9,762.8,955.7,762.8z"/>
</g>
<g id="past">
	<path class="st0" d="M170.3,744.1h4.2c3.3,0,5.7-0.6,7.1-1.8c1.4-1.2,2.1-3.1,2.1-5.6c0-4.7-2.8-7-8.4-7h-5V744.1z M170.3,748.1
		v14.2h-4.7v-36.6h10.1c8.6,0,12.9,3.6,12.9,10.7c0,3.6-1.2,6.5-3.5,8.5c-2.3,2.1-5.7,3.1-10.1,3.1H170.3z"/>
	<path class="st0" d="M252.3,746.9l-3.3-10.6c-0.6-2.1-1.2-3.9-1.5-5.6c-0.3,1.6-0.7,3.2-1.2,4.6l-3.6,11.7H252.3z M257.2,762.3
		l-3.6-11.3h-12.3l-3.6,11.3h-4.8l12.1-36.7h4.9l12.1,36.7H257.2z"/>
	<path class="st0" d="M306.4,761.1v-4.5c3.5,1.4,7,2.2,10.4,2.2c5.8,0,8.8-2,8.8-6c0-1.7-0.6-3.1-1.8-4c-1.2-0.9-3.6-2-7.1-3.3
		c-3.5-1.2-6-2.7-7.5-4.4c-1.5-1.7-2.3-3.9-2.3-6.6c0-2.9,1.1-5.2,3.2-6.8c2.1-1.6,5.1-2.5,8.8-2.5c3.8,0,7.3,0.6,10.4,1.9l-1.6,4.1
		c-3.2-1.3-6.2-1.9-9-1.9c-4.9,0-7.3,1.7-7.3,5.2c0,1.7,0.5,3.1,1.6,4.1c1.1,1,3.3,2.1,6.8,3.3c4.1,1.5,6.8,3,8.2,4.5
		c1.4,1.6,2.1,3.6,2.1,6c0,3.2-1.2,5.7-3.5,7.5c-2.3,1.8-5.6,2.7-9.8,2.7C312.4,762.8,308.9,762.2,306.4,761.1z"/>
	<polygon class="st0" points="391.4,762.3 386.7,762.3 386.7,729.9 376.3,729.9 376.3,725.8 401.8,725.8 401.8,729.9 391.4,729.9 	
		"/>
</g>
<g id="to">
	<polygon class="st0" points="1170.4,691.6 1165.7,691.6 1165.7,659.2 1155.3,659.2 1155.3,655.1 1180.8,655.1 1180.8,659.2 
		1170.4,659.2 	"/>
	<path class="st0" d="M1239,688.1c2.9,0,5-1.2,6.3-3.6c1.3-2.4,2-6.1,2-11.1c0-5-0.7-8.8-2-11.1c-1.4-2.4-3.4-3.6-6.3-3.6
		c-5.6,0-8.4,4.9-8.4,14.7C1230.6,683.2,1233.4,688.1,1239,688.1z M1239,692.1c-8.9,0-13.3-6.3-13.3-18.9c0-12.5,4.5-18.8,13.4-18.8
		c4.3,0,7.5,1.6,9.8,4.9c2.3,3.3,3.4,7.9,3.4,13.9c0,6-1.2,10.7-3.5,13.9C1246.5,690.5,1243.2,692.1,1239,692.1z"/>
</g>
<g id="quarter">
	<path class="st0" d="M601.6,688.1c2.9,0,5-1.2,6.3-3.6c1.3-2.4,2-6.1,2-11.1c0-5-0.7-8.8-2-11.1c-1.4-2.4-3.4-3.6-6.3-3.6
		c-5.6,0-8.4,4.9-8.4,14.7C593.2,683.2,596,688.1,601.6,688.1z M607.7,690.7c1.4,3,3.7,5.6,7,7.8l-3,3.6c-3.9-2.9-6.7-6.2-8.2-10
		c-0.6,0.1-1.2,0.1-1.9,0.1c-8.9,0-13.3-6.3-13.3-18.9c0-12.5,4.4-18.8,13.4-18.8c4.3,0,7.5,1.6,9.8,4.9c2.3,3.3,3.4,7.9,3.4,13.9
		C614.9,682.1,612.5,687.9,607.7,690.7z"/>
	<path class="st0" d="M684.6,655v23.7c0,4.3-1.1,7.6-3.1,9.9c-2.1,2.3-5.2,3.5-9.2,3.5c-8.1,0-12.1-4.5-12.1-13.5v-23.5h4.7v23.3
		c0,6.5,2.6,9.7,7.7,9.7c4.9,0,7.4-3.2,7.5-9.7V655H684.6z"/>
	<path class="st0" d="M748,676.2l-3.3-10.6c-0.7-2.1-1.2-4-1.6-5.7c-0.3,1.7-0.7,3.2-1.1,4.6l-3.6,11.7H748z M752.9,691.6l-3.6-11.3
		H737l-3.7,11.3h-4.8l12.1-36.7h4.9l12.1,36.7H752.9z"/>
	<path class="st0" d="M808,672.6h4.1c2.9,0,5-0.6,6.3-1.7c1.3-1.1,2-2.8,2-5.2c0-2.3-0.7-4-2-5.1c-1.3-1-3.5-1.6-6.5-1.6h-4V672.6z
		 M808,676.5v15.1h-4.7v-36.5h8.9c8.7,0,13,3.5,13,10.4c0,4.8-2.4,8-7.2,9.8l9.9,16.4h-5.5l-8.8-15.1H808z"/>
	<polygon class="st0" points="887.1,691.6 882.5,691.6 882.5,659.2 872,659.2 872,655.1 897.6,655.1 897.6,659.2 887.1,659.2 	"/>
	<polygon class="st0" points="966.8,691.6 945.7,691.6 945.7,655.1 966.8,655.1 966.8,659.2 950.4,659.2 950.4,670.5 965.8,670.5 
		965.8,674.5 950.4,674.5 950.4,687.5 966.8,687.5 	"/>
	<path class="st0" d="M1020.4,672.6h4.1c2.8,0,5-0.6,6.3-1.7c1.3-1.1,2-2.8,2-5.2c0-2.3-0.7-4-2-5.1c-1.3-1-3.5-1.6-6.5-1.6h-4
		V672.6z M1020.4,676.5v15.1h-4.7v-36.5h8.9c8.7,0,13,3.5,13,10.4c0,4.8-2.4,8-7.2,9.8l9.9,16.4h-5.5l-8.8-15.1H1020.4z"/>
</g>
<g id="half">
	<polygon class="st0" points="188.6,691.6 183.9,691.6 183.9,674.6 169.3,674.6 169.3,691.6 164.6,691.6 164.6,655.1 169.3,655.1 
		169.3,670.5 183.9,670.5 183.9,655.1 188.6,655.1 	"/>
	<path class="st0" d="M252.3,676.2l-3.3-10.6c-0.6-2.1-1.2-4-1.5-5.7c-0.3,1.7-0.7,3.2-1.2,4.6l-3.6,11.7H252.3z M257.2,691.6
		l-3.6-11.3h-12.3l-3.6,11.3h-4.8l12.1-36.7h4.9l12.1,36.7H257.2z"/>
	<polygon class="st0" points="308.7,691.6 308.7,655.1 313.4,655.1 313.4,687.5 329.3,687.5 329.3,691.6 	"/>
	<polygon class="st0" points="384.5,691.6 379.8,691.6 379.8,655.1 400.8,655.1 400.8,659.2 384.5,659.2 384.5,672.1 399.9,672.1 
		399.9,676.2 384.5,676.2 	"/>
</g>
<g id="midnight">
	<path class="st0" d="M741.1,479.7l-6.9-32H734c0.3,4.4,0.4,7.8,0.4,10.1v21.9h-3.8v-36.6h6.2l6.2,29.8h0.2l6.2-29.8h6.3v36.6h-3.8
		v-22.2c0-1.7,0.1-5,0.4-9.8H752l-7.1,32H741.1z"/>
	<polygon class="st0" points="823.7,479.7 804.3,479.7 804.3,476.6 811.6,476.1 811.6,446.7 804.3,446.2 804.3,443.1 823.7,443.1 
		823.7,446.2 816.3,446.7 816.3,476.1 823.7,476.6 	"/>
	<path class="st0" d="M877.5,447.1v28.6h2.4c8.9,0,13.3-4.8,13.3-14.5c0-9.4-4.1-14.1-12.3-14.1H877.5z M872.8,479.7v-36.6h8.6
		c5.3,0,9.4,1.6,12.3,4.7c2.9,3.2,4.4,7.6,4.4,13.2c0,6-1.5,10.6-4.6,13.8c-3.1,3.2-7.5,4.8-13.2,4.8H872.8z"/>
	<path class="st0" d="M967.6,479.7h-5.4l-14.5-30.2h-0.2c0.3,4.6,0.4,8.1,0.4,10.4v19.8h-4.3v-36.6h5.3l14.5,30.1h0.2
		c-0.2-5-0.4-8.4-0.4-10.1v-20h4.4V479.7z"/>
	<polygon class="st0" points="1036.1,479.7 1016.7,479.7 1016.7,476.6 1024.1,476.1 1024.1,446.7 1016.7,446.2 1016.7,443.1 
		1036.1,443.1 1036.1,446.2 1028.8,446.7 1028.8,476.1 1036.1,476.6 	"/>
	<path class="st0" d="M1098.7,460.4h10.5v17.9c-3.2,1.2-6.8,1.9-10.5,1.9c-4.4,0-7.8-1.7-10.2-5c-2.5-3.3-3.7-7.9-3.7-13.8
		c0-5.8,1.3-10.4,4-13.8c2.7-3.3,6.4-5,11.2-5c3.2,0,6.1,0.7,8.6,2.2l-1.8,4.1c-2.4-1.4-4.8-2.1-7-2.1c-3.2,0-5.7,1.3-7.5,3.9
		c-1.8,2.6-2.7,6.2-2.7,10.8c0,9.8,3.3,14.7,9.9,14.7c1.6,0,3.3-0.2,5-0.7v-10.9h-5.9V460.4z"/>
	<polygon class="st0" points="1180.1,479.7 1175.4,479.7 1175.4,462.6 1160.8,462.6 1160.8,479.7 1156.1,479.7 1156.1,443.1 
		1160.8,443.1 1160.8,458.5 1175.4,458.5 1175.4,443.1 1180.1,443.1 	"/>
	<polygon class="st0" points="1241.2,479.7 1236.6,479.7 1236.6,447.2 1226.1,447.2 1226.1,443.1 1251.7,443.1 1251.7,447.2 
		1241.2,447.2 	"/>
</g>
<g id="seventeen">
	<path class="st0" d="M164.8,619.8v-4.5c3.5,1.4,7,2.1,10.4,2.1c5.8,0,8.8-2,8.8-6c0-1.7-0.6-3.1-1.8-4c-1.2-0.9-3.6-2-7.1-3.3
		c-3.5-1.2-6-2.7-7.5-4.4c-1.5-1.7-2.3-3.9-2.3-6.6c0-2.9,1.1-5.2,3.2-6.8c2.1-1.6,5.1-2.5,8.8-2.5c3.8,0,7.3,0.7,10.4,1.9l-1.6,4.1
		c-3.2-1.3-6.2-1.9-9-1.9c-4.9,0-7.3,1.7-7.3,5.2c0,1.7,0.5,3.1,1.6,4.1c1.1,1,3.3,2.1,6.8,3.3c4.1,1.5,6.8,3,8.2,4.5
		c1.4,1.6,2.1,3.6,2.1,6c0,3.2-1.2,5.7-3.5,7.5c-2.3,1.8-5.6,2.7-9.8,2.7C170.7,621.5,167.3,620.9,164.8,619.8z"/>
	<polygon class="st0" points="258.6,621 237.5,621 237.5,584.4 258.6,584.4 258.6,588.5 242.2,588.5 242.2,599.8 257.6,599.8 
		257.6,603.9 242.2,603.9 242.2,616.9 258.6,616.9 	"/>
	<path class="st0" d="M327.8,584.4h5L320.6,621h-4.7l-12.2-36.5h4.9l7.4,23.2c0.7,2.1,1.4,4.9,2.2,8.4c0.5-2.4,1.3-5.2,2.3-8.5
		L327.8,584.4z"/>
	<polygon class="st0" points="400.2,621 379.1,621 379.1,584.4 400.2,584.4 400.2,588.5 383.8,588.5 383.8,599.8 399.2,599.8 
		399.2,603.9 383.8,603.9 383.8,616.9 400.2,616.9 	"/>
	<path class="st0" d="M471.8,621h-5.4L452,590.7h-0.2c0.3,4.6,0.4,8.1,0.4,10.4V621h-4.3v-36.5h5.3l14.4,30.1h0.1
		c-0.2-5.1-0.3-8.4-0.3-10.1v-20h4.3V621z"/>
	<polygon class="st0" points="533,621 528.4,621 528.4,588.5 517.9,588.5 517.9,584.4 543.5,584.4 543.5,588.5 533,588.5 	"/>
	<polygon class="st0" points="612.7,621 591.6,621 591.6,584.4 612.7,584.4 612.7,588.5 596.3,588.5 596.3,599.8 611.7,599.8 
		611.7,603.9 596.3,603.9 596.3,616.9 612.7,616.9 	"/>
	<polygon class="st0" points="683.5,621 662.4,621 662.4,584.4 683.5,584.4 683.5,588.5 667.1,588.5 667.1,599.8 682.5,599.8 
		682.5,603.9 667.1,603.9 667.1,616.9 683.5,616.9 	"/>
	<path class="st0" d="M755.1,621h-5.4l-14.5-30.2H735c0.3,4.6,0.4,8.1,0.4,10.4V621h-4.3v-36.5h5.3l14.5,30.1h0.1
		c-0.2-5.1-0.4-8.4-0.4-10.1v-20h4.4V621z"/>
</g>
<g id="eighteen">
	<polygon class="st0" points="754.3,550.3 733.2,550.3 733.2,513.8 754.3,513.8 754.3,517.9 737.9,517.9 737.9,529.2 753.3,529.2 
		753.3,533.2 737.9,533.2 737.9,546.2 754.3,546.2 	"/>
	<polygon class="st0" points="823.7,550.3 804.3,550.3 804.3,547.3 811.6,546.8 811.6,517.4 804.3,516.9 804.3,513.8 823.7,513.8 
		823.7,516.9 816.3,517.4 816.3,546.8 823.7,547.3 	"/>
	<path class="st0" d="M886.3,531h10.6V549c-3.2,1.2-6.8,1.9-10.5,1.9c-4.4,0-7.8-1.7-10.2-5c-2.5-3.3-3.7-7.9-3.7-13.8
		c0-5.8,1.4-10.4,4.1-13.8c2.7-3.3,6.4-5,11.1-5c3.2,0,6.1,0.7,8.7,2.2l-1.8,4c-2.4-1.4-4.8-2.1-7-2.1c-3.2,0-5.7,1.3-7.5,3.9
		c-1.8,2.6-2.7,6.2-2.7,10.8c0,9.8,3.3,14.7,9.9,14.7c1.6,0,3.3-0.2,5.1-0.7v-10.9h-5.9V531z"/>
	<polygon class="st0" points="967.6,550.3 963,550.3 963,533.3 948.3,533.3 948.3,550.3 943.7,550.3 943.7,513.8 948.3,513.8 
		948.3,529.2 963,529.2 963,513.8 967.6,513.8 	"/>
	<polygon class="st0" points="1028.8,550.3 1024.1,550.3 1024.1,517.9 1013.7,517.9 1013.7,513.8 1039.2,513.8 1039.2,517.9 
		1028.8,517.9 	"/>
	<polygon class="st0" points="1108.4,550.3 1087.3,550.3 1087.3,513.8 1108.4,513.8 1108.4,517.9 1092,517.9 1092,529.2 
		1107.4,529.2 1107.4,533.2 1092,533.2 1092,546.2 1108.4,546.2 	"/>
	<polygon class="st0" points="1179.2,550.3 1158.2,550.3 1158.2,513.8 1179.2,513.8 1179.2,517.9 1162.8,517.9 1162.8,529.2 
		1178.2,529.2 1178.2,533.2 1162.8,533.2 1162.8,546.2 1179.2,546.2 	"/>
	<path class="st0" d="M1250.9,550.3h-5.4l-14.5-30.2h-0.2c0.3,4.6,0.5,8.1,0.5,10.4v19.8h-4.3v-36.5h5.3l14.4,30.1h0.2
		c-0.2-5.1-0.4-8.4-0.4-10.1v-20h4.4V550.3z"/>
</g>
<g id="sixteen">
	<path class="st0" d="M164.8,549.1v-4.4c3.5,1.4,7,2.1,10.4,2.1c5.8,0,8.8-2,8.8-6c0-1.7-0.6-3.1-1.8-4c-1.2-0.9-3.6-2-7.1-3.3
		c-3.5-1.2-6-2.7-7.5-4.4c-1.5-1.7-2.3-3.9-2.3-6.6c0-2.9,1.1-5.2,3.2-6.8c2.1-1.6,5.1-2.5,8.8-2.5c3.8,0,7.3,0.7,10.4,1.9l-1.6,4.1
		c-3.2-1.3-6.2-2-9-2c-4.9,0-7.3,1.7-7.3,5.2c0,1.7,0.5,3.1,1.6,4.1c1.1,1,3.3,2.1,6.8,3.3c4.1,1.5,6.8,3,8.2,4.5
		c1.4,1.6,2.1,3.6,2.1,6c0,3.2-1.2,5.7-3.5,7.5c-2.3,1.8-5.6,2.7-9.8,2.7C170.7,550.8,167.3,550.3,164.8,549.1z"/>
	<polygon class="st0" points="257.1,550.3 237.7,550.3 237.7,547.3 245.1,546.8 245.1,517.4 237.7,516.9 237.7,513.8 257.1,513.8 
		257.1,516.9 249.8,517.4 249.8,546.8 257.1,547.3 	"/>
	<polygon class="st0" points="332.2,550.3 327,550.3 318.1,534.5 309,550.3 304.2,550.3 315.6,531.2 305,513.8 310,513.8 
		318.2,527.8 326.6,513.8 331.4,513.8 320.8,531.1 	"/>
	<polygon class="st0" points="391.4,550.3 386.7,550.3 386.7,517.9 376.3,517.9 376.3,513.8 401.8,513.8 401.8,517.9 391.4,517.9 	
		"/>
	<polygon class="st0" points="471,550.3 450,550.3 450,513.8 471,513.8 471,517.9 454.6,517.9 454.6,529.2 470,529.2 470,533.2 
		454.6,533.2 454.6,546.2 471,546.2 	"/>
	<polygon class="st0" points="541.8,550.3 520.8,550.3 520.8,513.8 541.8,513.8 541.8,517.9 525.4,517.9 525.4,529.2 540.9,529.2 
		540.9,533.2 525.4,533.2 525.4,546.2 541.8,546.2 	"/>
	<path class="st0" d="M613.5,550.3h-5.4l-14.5-30.2h-0.2c0.3,4.6,0.4,8.1,0.4,10.4v19.8h-4.3v-36.5h5.3l14.4,30.1h0.1
		c-0.2-5.1-0.3-8.4-0.3-10.1v-20h4.3V550.3z"/>
</g>
<g id="nineteen">
	<path class="st0" d="M613.5,409h-5.4l-14.5-30.2h-0.2c0.3,4.6,0.4,8.1,0.4,10.4V409h-4.3v-36.5h5.3l14.4,30.1h0.1
		c-0.2-5-0.3-8.4-0.3-10.1v-20h4.3V409z"/>
	<polygon class="st0" points="682,409 662.6,409 662.6,405.9 670,405.4 670,376 662.6,375.5 662.6,372.5 682,372.5 682,375.5 
		674.7,376 674.7,405.4 682,405.9 	"/>
	<path class="st0" d="M755.1,409h-5.4l-14.5-30.2H735c0.3,4.6,0.4,8.1,0.4,10.4V409h-4.3v-36.5h5.3l14.5,30.1h0.1
		c-0.2-5-0.4-8.4-0.4-10.1v-20h4.4V409z"/>
	<polygon class="st0" points="825.1,409 804.1,409 804.1,372.5 825.1,372.5 825.1,376.6 808.7,376.6 808.7,387.9 824.1,387.9 
		824.1,391.9 808.7,391.9 808.7,404.9 825.1,404.9 	"/>
	<polygon class="st0" points="887.1,409 882.5,409 882.5,376.6 872,376.6 872,372.5 897.6,372.5 897.6,376.6 887.1,376.6 	"/>
	<polygon class="st0" points="966.8,409 945.7,409 945.7,372.5 966.8,372.5 966.8,376.6 950.4,376.6 950.4,387.9 965.8,387.9 
		965.8,391.9 950.4,391.9 950.4,404.9 966.8,404.9 	"/>
	<polygon class="st0" points="1037.6,409 1016.5,409 1016.5,372.5 1037.6,372.5 1037.6,376.6 1021.2,376.6 1021.2,387.9 
		1036.6,387.9 1036.6,391.9 1021.2,391.9 1021.2,404.9 1037.6,404.9 	"/>
	<path class="st0" d="M1109.2,409h-5.4l-14.5-30.2h-0.2c0.3,4.6,0.5,8.1,0.5,10.4V409h-4.3v-36.5h5.3l14.4,30.1h0.2
		c-0.2-5-0.4-8.4-0.4-10.1v-20h4.4V409z"/>
</g>
<g id="fourteen">
	<polygon class="st0" points="172,479.7 167.4,479.7 167.4,443.1 188.4,443.1 188.4,447.2 172,447.2 172,460.1 187.4,460.1 
		187.4,464.2 172,464.2 	"/>
	<path class="st0" d="M247.5,476.1c2.9,0,5-1.2,6.3-3.6c1.3-2.4,2-6.1,2-11.1c0-5-0.7-8.8-2-11.1s-3.4-3.6-6.3-3.6
		c-5.6,0-8.4,4.9-8.4,14.7C239.1,471.2,241.9,476.1,247.5,476.1z M247.5,480.2c-8.9,0-13.3-6.3-13.3-18.9c0-12.5,4.5-18.8,13.4-18.8
		c4.3,0,7.5,1.6,9.8,4.9c2.3,3.3,3.4,7.9,3.4,13.9c0,6-1.2,10.7-3.5,13.9C255,478.5,251.7,480.2,247.5,480.2z"/>
	<path class="st0" d="M330.5,443.1v23.7c0,4.3-1,7.7-3.1,9.9c-2.1,2.3-5.2,3.5-9.2,3.5c-8.1,0-12.1-4.5-12.1-13.5v-23.6h4.6v23.3
		c0,6.4,2.6,9.7,7.7,9.7c4.9,0,7.4-3.2,7.5-9.7v-23.3H330.5z"/>
	<path class="st0" d="M383,460.6h4.1c2.9,0,5-0.6,6.3-1.7c1.4-1.1,2-2.8,2-5.2c0-2.3-0.7-4-2-5.1c-1.3-1-3.5-1.6-6.5-1.6h-4V460.6z
		 M383,464.6v15.1h-4.7v-36.6h8.9c8.7,0,13,3.5,13,10.4c0,4.8-2.4,8.1-7.2,9.8l9.9,16.4h-5.5l-8.8-15.1H383z"/>
	<polygon class="st0" points="462.2,479.7 457.5,479.7 457.5,447.2 447.1,447.2 447.1,443.1 472.6,443.1 472.6,447.2 462.2,447.2 	
		"/>
	<polygon class="st0" points="541.8,479.7 520.8,479.7 520.8,443.1 541.8,443.1 541.8,447.2 525.4,447.2 525.4,458.5 540.9,458.5 
		540.9,462.6 525.4,462.6 525.4,475.6 541.8,475.6 	"/>
	<polygon class="st0" points="612.7,479.7 591.6,479.7 591.6,443.1 612.7,443.1 612.7,447.2 596.3,447.2 596.3,458.5 611.7,458.5 
		611.7,462.6 596.3,462.6 596.3,475.6 612.7,475.6 	"/>
	<path class="st0" d="M684.3,479.7h-5.4l-14.5-30.2h-0.2c0.3,4.6,0.4,8.1,0.4,10.4v19.8h-4.3v-36.6h5.3l14.4,30.1h0.1
		c-0.2-5-0.3-8.4-0.3-10.1v-20h4.3V479.7z"/>
</g>
<g id="thirteen">
	<polygon class="st0" points="745.5,267.7 740.8,267.7 740.8,235.3 730.4,235.3 730.4,231.2 755.9,231.2 755.9,235.3 745.5,235.3 	
		"/>
	<polygon class="st0" points="826,267.7 821.3,267.7 821.3,250.7 806.7,250.7 806.7,267.7 802,267.7 802,231.2 806.7,231.2 
		806.7,246.6 821.3,246.6 821.3,231.2 826,231.2 	"/>
	<polygon class="st0" points="894.5,267.7 875.1,267.7 875.1,264.6 882.5,264.1 882.5,234.7 875.1,234.2 875.1,231.2 894.5,231.2 
		894.5,234.2 887.1,234.7 887.1,264.1 894.5,264.6 	"/>
	<path class="st0" d="M949.6,248.7h4.1c2.8,0,4.9-0.6,6.3-1.6c1.3-1.1,2-2.9,2-5.2c0-2.4-0.7-4-2-5.1c-1.3-1-3.5-1.5-6.4-1.5h-4
		V248.7z M949.6,252.6v15.1h-4.7v-36.6h8.9c8.7,0,13,3.5,13,10.4c0,4.8-2.4,8.1-7.2,9.8l9.9,16.4h-5.5l-8.8-15.1H949.6z"/>
	<polygon class="st0" points="1028.8,267.7 1024.1,267.7 1024.1,235.3 1013.7,235.3 1013.7,231.2 1039.2,231.2 1039.2,235.3 
		1028.8,235.3 	"/>
	<polygon class="st0" points="1108.4,267.7 1087.3,267.7 1087.3,231.2 1108.4,231.2 1108.4,235.3 1092,235.3 1092,246.6 
		1107.4,246.6 1107.4,250.6 1092,250.6 1092,263.6 1108.4,263.6 	"/>
	<polygon class="st0" points="1179.2,267.7 1158.2,267.7 1158.2,231.2 1179.2,231.2 1179.2,235.3 1162.8,235.3 1162.8,246.6 
		1178.2,246.6 1178.2,250.6 1162.8,250.6 1162.8,263.6 1179.2,263.6 	"/>
	<path class="st0" d="M1250.9,267.7h-5.4l-14.5-30.2h-0.2c0.3,4.6,0.5,8.1,0.5,10.4v19.8h-4.3v-36.6h5.3l14.4,30.1h0.2
		c-0.2-5.1-0.4-8.4-0.4-10.1v-20h4.4V267.7z"/>
</g>
<g id="twelve">
	<polygon class="st0" points="887.1,621 882.5,621 882.5,588.5 872,588.5 872,584.4 897.6,584.4 897.6,588.5 887.1,588.5 	"/>
	<path class="st0" d="M953.5,595.8h4.4l3.6,13c1,3.6,1.6,6.2,1.8,7.7c0-0.9,0.6-6,1.6-15.5l1.8-16.6h4.2l-4.7,36.5h-4.8l-4.2-14.5
		c-0.7-2.3-1.2-4.6-1.7-7c-0.5,2.9-1.1,5.2-1.6,7.1l-3.9,14.4h-4.8l-5.1-36.5h4.2l2.2,16.6c0.4,2.9,0.7,6.1,1,9.4
		c0.3,3.4,0.4,5.4,0.4,6c0.4-2.5,1-5.1,1.8-7.8L953.5,595.8z"/>
	<polygon class="st0" points="1037.6,621 1016.5,621 1016.5,584.4 1037.6,584.4 1037.6,588.5 1021.2,588.5 1021.2,599.8 
		1036.6,599.8 1036.6,603.9 1021.2,603.9 1021.2,616.9 1037.6,616.9 	"/>
	<polygon class="st0" points="1087.7,621 1087.7,584.4 1092.4,584.4 1092.4,616.8 1108.3,616.8 1108.3,621 	"/>
	<path class="st0" d="M1177.7,584.4h5l-12.2,36.5h-4.7l-12.2-36.5h4.9l7.4,23.2c0.7,2.1,1.4,4.9,2.2,8.4c0.5-2.4,1.3-5.2,2.3-8.5
		L1177.7,584.4z"/>
	<polygon class="st0" points="1250,621 1229,621 1229,584.4 1250,584.4 1250,588.5 1233.6,588.5 1233.6,599.8 1249.1,599.8 
		1249.1,603.9 1233.6,603.9 1233.6,616.9 1250,616.9 	"/>
</g>
<g id="eleven">
	<polygon class="st0" points="541.8,338.4 520.8,338.4 520.8,301.8 541.8,301.8 541.8,305.9 525.4,305.9 525.4,317.2 540.9,317.2 
		540.9,321.3 525.4,321.3 525.4,334.3 541.8,334.3 	"/>
	<polygon class="st0" points="592,338.4 592,301.8 596.7,301.8 596.7,334.2 612.6,334.2 612.6,338.4 	"/>
	<polygon class="st0" points="683.5,338.4 662.4,338.4 662.4,301.8 683.5,301.8 683.5,305.9 667.1,305.9 667.1,317.2 682.5,317.2 
		682.5,321.3 667.1,321.3 667.1,334.3 683.5,334.3 	"/>
	<path class="st0" d="M752.7,301.8h5l-12.2,36.6h-4.7l-12.2-36.6h4.9l7.4,23.2c0.7,2.1,1.4,4.9,2.2,8.3c0.5-2.4,1.3-5.2,2.3-8.5
		L752.7,301.8z"/>
	<polygon class="st0" points="825.1,338.4 804.1,338.4 804.1,301.8 825.1,301.8 825.1,305.9 808.7,305.9 808.7,317.2 824.1,317.2 
		824.1,321.3 808.7,321.3 808.7,334.3 825.1,334.3 	"/>
	<path class="st0" d="M896.8,338.4h-5.4l-14.5-30.2h-0.2c0.3,4.6,0.4,8.1,0.4,10.4v19.8h-4.3v-36.6h5.3l14.5,30.1h0.1
		c-0.2-5-0.4-8.4-0.4-10.1v-20h4.4V338.4z"/>
</g>
<g id="ten">
	<polygon class="st0" points="462.2,267.7 457.5,267.7 457.5,235.3 447.1,235.3 447.1,231.2 472.6,231.2 472.6,235.3 462.2,235.3 	
		"/>
	<polygon class="st0" points="541.8,267.7 520.8,267.7 520.8,231.2 541.8,231.2 541.8,235.3 525.4,235.3 525.4,246.6 540.9,246.6 
		540.9,250.6 525.4,250.6 525.4,263.6 541.8,263.6 	"/>
	<path class="st0" d="M613.5,267.7h-5.4l-14.5-30.2h-0.2c0.3,4.6,0.4,8.1,0.4,10.4v19.8h-4.3v-36.6h5.3l14.4,30.1h0.1
		c-0.2-5.1-0.3-8.4-0.3-10.1v-20h4.3V267.7z"/>
</g>
<g id="nine">
	<path class="st0" d="M613.5,409h-5.4l-14.5-30.2h-0.2c0.3,4.6,0.4,8.1,0.4,10.4V409h-4.3v-36.5h5.3l14.4,30.1h0.1
		c-0.2-5-0.3-8.4-0.3-10.1v-20h4.3V409z"/>
	<polygon class="st0" points="682,409 662.6,409 662.6,405.9 670,405.4 670,376 662.6,375.5 662.6,372.5 682,372.5 682,375.5 
		674.7,376 674.7,405.4 682,405.9 	"/>
	<path class="st0" d="M755.1,409h-5.4l-14.5-30.2H735c0.3,4.6,0.4,8.1,0.4,10.4V409h-4.3v-36.5h5.3l14.5,30.1h0.1
		c-0.2-5-0.4-8.4-0.4-10.1v-20h4.4V409z"/>
	<polygon class="st0" points="825.1,409 804.1,409 804.1,372.5 825.1,372.5 825.1,376.6 808.7,376.6 808.7,387.9 824.1,387.9 
		824.1,391.9 808.7,391.9 808.7,404.9 825.1,404.9 	"/>
</g>
<g id="eight">
	<polygon class="st0" points="754.3,550.3 733.2,550.3 733.2,513.8 754.3,513.8 754.3,517.9 737.9,517.9 737.9,529.2 753.3,529.2 
		753.3,533.2 737.9,533.2 737.9,546.2 754.3,546.2 	"/>
	<polygon class="st0" points="823.7,550.3 804.3,550.3 804.3,547.3 811.6,546.8 811.6,517.4 804.3,516.9 804.3,513.8 823.7,513.8 
		823.7,516.9 816.3,517.4 816.3,546.8 823.7,547.3 	"/>
	<path class="st0" d="M886.3,531h10.6V549c-3.2,1.2-6.8,1.9-10.5,1.9c-4.4,0-7.8-1.7-10.2-5c-2.5-3.3-3.7-7.9-3.7-13.8
		c0-5.8,1.4-10.4,4.1-13.8c2.7-3.3,6.4-5,11.1-5c3.2,0,6.1,0.7,8.7,2.2l-1.8,4c-2.4-1.4-4.8-2.1-7-2.1c-3.2,0-5.7,1.3-7.5,3.9
		c-1.8,2.6-2.7,6.2-2.7,10.8c0,9.8,3.3,14.7,9.9,14.7c1.6,0,3.3-0.2,5.1-0.7v-10.9h-5.9V531z"/>
	<polygon class="st0" points="967.6,550.3 963,550.3 963,533.3 948.3,533.3 948.3,550.3 943.7,550.3 943.7,513.8 948.3,513.8 
		948.3,529.2 963,529.2 963,513.8 967.6,513.8 	"/>
	<polygon class="st0" points="1028.8,550.3 1024.1,550.3 1024.1,517.9 1013.7,517.9 1013.7,513.8 1039.2,513.8 1039.2,517.9 
		1028.8,517.9 	"/>
</g>
<g id="seven">
	<path class="st0" d="M164.8,619.8v-4.5c3.5,1.4,7,2.1,10.4,2.1c5.8,0,8.8-2,8.8-6c0-1.7-0.6-3.1-1.8-4c-1.2-0.9-3.6-2-7.1-3.3
		c-3.5-1.2-6-2.7-7.5-4.4c-1.5-1.7-2.3-3.9-2.3-6.6c0-2.9,1.1-5.2,3.2-6.8c2.1-1.6,5.1-2.5,8.8-2.5c3.8,0,7.3,0.7,10.4,1.9l-1.6,4.1
		c-3.2-1.3-6.2-1.9-9-1.9c-4.9,0-7.3,1.7-7.3,5.2c0,1.7,0.5,3.1,1.6,4.1c1.1,1,3.3,2.1,6.8,3.3c4.1,1.5,6.8,3,8.2,4.5
		c1.4,1.6,2.1,3.6,2.1,6c0,3.2-1.2,5.7-3.5,7.5c-2.3,1.8-5.6,2.7-9.8,2.7C170.7,621.5,167.3,620.9,164.8,619.8z"/>
	<polygon class="st0" points="258.6,621 237.5,621 237.5,584.4 258.6,584.4 258.6,588.5 242.2,588.5 242.2,599.8 257.6,599.8 
		257.6,603.9 242.2,603.9 242.2,616.9 258.6,616.9 	"/>
	<path class="st0" d="M327.8,584.4h5L320.6,621h-4.7l-12.2-36.5h4.9l7.4,23.2c0.7,2.1,1.4,4.9,2.2,8.4c0.5-2.4,1.3-5.2,2.3-8.5
		L327.8,584.4z"/>
	<polygon class="st0" points="400.2,621 379.1,621 379.1,584.4 400.2,584.4 400.2,588.5 383.8,588.5 383.8,599.8 399.2,599.8 
		399.2,603.9 383.8,603.9 383.8,616.9 400.2,616.9 	"/>
	<path class="st0" d="M471.8,621h-5.4L452,590.7h-0.2c0.3,4.6,0.4,8.1,0.4,10.4V621h-4.3v-36.5h5.3l14.4,30.1h0.1
		c-0.2-5.1-0.3-8.4-0.3-10.1v-20h4.3V621z"/>
</g>
<g id="six">
	<path class="st0" d="M164.8,549.1v-4.4c3.5,1.4,7,2.1,10.4,2.1c5.8,0,8.8-2,8.8-6c0-1.7-0.6-3.1-1.8-4c-1.2-0.9-3.6-2-7.1-3.3
		c-3.5-1.2-6-2.7-7.5-4.4c-1.5-1.7-2.3-3.9-2.3-6.6c0-2.9,1.1-5.2,3.2-6.8c2.1-1.6,5.1-2.5,8.8-2.5c3.8,0,7.3,0.7,10.4,1.9l-1.6,4.1
		c-3.2-1.3-6.2-2-9-2c-4.9,0-7.3,1.7-7.3,5.2c0,1.7,0.5,3.1,1.6,4.1c1.1,1,3.3,2.1,6.8,3.3c4.1,1.5,6.8,3,8.2,4.5
		c1.4,1.6,2.1,3.6,2.1,6c0,3.2-1.2,5.7-3.5,7.5c-2.3,1.8-5.6,2.7-9.8,2.7C170.7,550.8,167.3,550.3,164.8,549.1z"/>
	<polygon class="st0" points="257.1,550.3 237.7,550.3 237.7,547.3 245.1,546.8 245.1,517.4 237.7,516.9 237.7,513.8 257.1,513.8 
		257.1,516.9 249.8,517.4 249.8,546.8 257.1,547.3 	"/>
	<polygon class="st0" points="332.2,550.3 327,550.3 318.1,534.5 309,550.3 304.2,550.3 315.6,531.2 305,513.8 310,513.8 
		318.2,527.8 326.6,513.8 331.4,513.8 320.8,531.1 	"/>
</g>
<g id="five">
	<polygon class="st0" points="172,338.4 167.4,338.4 167.4,301.8 188.4,301.8 188.4,305.9 172,305.9 172,318.8 187.4,318.8 
		187.4,322.9 172,322.9 	"/>
	<polygon class="st0" points="257.1,338.4 237.7,338.4 237.7,335.3 245.1,334.8 245.1,305.4 237.7,304.9 237.7,301.8 257.1,301.8 
		257.1,304.9 249.8,305.4 249.8,334.8 257.1,335.3 	"/>
	<path class="st0" d="M327.8,301.8h5l-12.2,36.6h-4.7l-12.2-36.6h4.9L316,325c0.7,2.1,1.4,4.9,2.2,8.3c0.5-2.4,1.3-5.2,2.3-8.5
		L327.8,301.8z"/>
	<polygon class="st0" points="400.2,338.4 379.1,338.4 379.1,301.8 400.2,301.8 400.2,305.9 383.8,305.9 383.8,317.2 399.2,317.2 
		399.2,321.3 383.8,321.3 383.8,334.3 400.2,334.3 	"/>
</g>
<g id="four">
	<polygon class="st0" points="1021.9,338.4 1017.2,338.4 1017.2,301.8 1038.2,301.8 1038.2,305.9 1021.9,305.9 1021.9,318.8 
		1037.3,318.8 1037.3,322.9 1021.9,322.9 	"/>
	<path class="st0" d="M1097.3,334.8c2.9,0,5-1.2,6.3-3.6c1.3-2.4,2-6.1,2-11.1c0-5-0.7-8.8-2-11.1c-1.4-2.4-3.4-3.6-6.3-3.6
		c-5.6,0-8.4,4.9-8.4,14.7C1088.9,329.9,1091.7,334.8,1097.3,334.8z M1097.3,338.9c-8.9,0-13.3-6.3-13.3-18.9
		c0-12.5,4.5-18.8,13.4-18.8c4.3,0,7.5,1.6,9.8,4.9c2.3,3.3,3.4,7.9,3.4,13.9c0,6-1.2,10.7-3.5,13.9
		C1104.8,337.2,1101.6,338.9,1097.3,338.9z"/>
	<path class="st0" d="M1180.3,301.8v23.7c0,4.3-1,7.7-3.1,9.9c-2.1,2.3-5.2,3.5-9.2,3.5c-8.1,0-12.1-4.5-12.1-13.5v-23.6h4.6v23.3
		c0,6.4,2.6,9.7,7.7,9.7c4.9,0,7.4-3.2,7.5-9.7v-23.3H1180.3z"/>
	<path class="st0" d="M1232.9,319.3h4.1c2.8,0,4.9-0.6,6.3-1.7c1.4-1.1,2-2.8,2-5.2c0-2.3-0.7-4-2-5.1c-1.3-1-3.5-1.6-6.4-1.6h-4
		V319.3z M1232.9,323.3v15.1h-4.7v-36.6h8.9c8.7,0,13,3.5,13,10.4c0,4.8-2.4,8.1-7.2,9.8l9.9,16.4h-5.5l-8.8-15.1H1232.9z"/>
</g>
<g id="three">
	<polygon class="st0" points="178.9,409 174.3,409 174.3,376.6 163.8,376.6 163.8,372.5 189.4,372.5 189.4,376.6 178.9,376.6 	"/>
	<polygon class="st0" points="259.4,409 254.8,409 254.8,392 240.1,392 240.1,409 235.5,409 235.5,372.5 240.1,372.5 240.1,387.9 
		254.8,387.9 254.8,372.5 259.4,372.5 	"/>
	<path class="st0" d="M312.2,390h4.1c2.8,0,4.9-0.6,6.3-1.7c1.4-1.1,2-2.8,2-5.2c0-2.3-0.7-4-2-5.1c-1.3-1-3.5-1.6-6.4-1.6h-4V390z
		 M312.2,393.9V409h-4.7v-36.5h8.9c8.7,0,13,3.5,13,10.4c0,4.8-2.4,8.1-7.2,9.8l9.9,16.4h-5.5l-8.8-15.1H312.2z"/>
	<polygon class="st0" points="400.2,409 379.1,409 379.1,372.5 400.2,372.5 400.2,376.6 383.8,376.6 383.8,387.9 399.2,387.9 
		399.2,391.9 383.8,391.9 383.8,404.9 400.2,404.9 	"/>
	<polygon class="st0" points="471,409 450,409 450,372.5 471,372.5 471,376.6 454.6,376.6 454.6,387.9 470,387.9 470,391.9 
		454.6,391.9 454.6,404.9 471,404.9 	"/>
</g>
<g id="two">
	<polygon class="st0" points="178.9,267.7 174.3,267.7 174.3,235.3 163.8,235.3 163.8,231.2 189.4,231.2 189.4,235.3 178.9,235.3 	
		"/>
	<path class="st0" d="M245.3,242.5h4.4l3.6,13c1,3.6,1.6,6.2,1.8,7.7c0-0.9,0.6-6,1.6-15.5l1.8-16.6h4.2l-4.7,36.6h-4.8l-4.2-14.5
		c-0.7-2.3-1.2-4.7-1.7-7.1c-0.5,2.9-1.1,5.2-1.6,7.1l-3.9,14.4h-4.8l-5.1-36.6h4.2l2.2,16.6c0.4,2.9,0.7,6.1,1,9.5
		c0.3,3.4,0.4,5.4,0.4,6c0.4-2.5,1-5.1,1.8-7.8L245.3,242.5z"/>
	<path class="st0" d="M318.3,264.1c2.9,0,5-1.2,6.3-3.6c1.3-2.4,2-6.1,2-11.1c0-5.1-0.7-8.8-2-11.1c-1.4-2.4-3.4-3.6-6.3-3.6
		c-5.6,0-8.4,4.9-8.4,14.7C309.9,259.2,312.7,264.1,318.3,264.1z M318.3,268.2c-8.9,0-13.3-6.3-13.3-18.9c0-12.5,4.5-18.8,13.4-18.8
		c4.3,0,7.5,1.6,9.8,4.9c2.3,3.3,3.4,7.9,3.4,13.9c0,6-1.2,10.7-3.5,13.9C325.8,266.6,322.6,268.2,318.3,268.2z"/>
</g>
<g id="one">
	<path class="st0" d="M1097.3,193.5c2.9,0,5-1.2,6.3-3.6c1.3-2.4,2-6.1,2-11.1c0-5.1-0.7-8.8-2-11.1c-1.4-2.4-3.4-3.6-6.3-3.6
		c-5.6,0-8.4,4.9-8.4,14.7C1088.9,188.6,1091.7,193.5,1097.3,193.5z M1097.3,197.6c-8.9,0-13.3-6.3-13.3-18.9
		c0-12.5,4.5-18.8,13.4-18.8c4.3,0,7.5,1.6,9.8,4.9c2.3,3.3,3.4,7.9,3.4,13.9c0,6-1.2,10.7-3.5,13.9
		C1104.8,195.9,1101.6,197.6,1097.3,197.6z"/>
	<path class="st0" d="M1180,197.1h-5.4l-14.5-30.2h-0.2c0.3,4.6,0.5,8.1,0.5,10.4v19.8h-4.3v-36.6h5.3l14.4,30.1h0.2
		c-0.2-5.1-0.4-8.4-0.4-10.1v-20h4.4V197.1z"/>
	<polygon class="st0" points="1250,197.1 1229,197.1 1229,160.5 1250,160.5 1250,164.6 1233.6,164.6 1233.6,175.9 1249.1,175.9 
		1249.1,180 1233.6,180 1233.6,193 1250,193 	"/>
</g>
<g id="twenty">
	<polygon class="st0" points="603.9,197.1 599.2,197.1 599.2,164.6 588.7,164.6 588.7,160.5 614.3,160.5 614.3,164.6 603.9,164.6 	
		"/>
	<path class="st0" d="M670.2,171.9h4.4l3.6,13c1,3.6,1.6,6.2,1.8,7.7c0-0.9,0.6-6,1.6-15.5l1.8-16.6h4.2l-4.7,36.6h-4.8l-4.2-14.5
		c-0.7-2.3-1.2-4.7-1.6-7.1c-0.5,2.9-1.1,5.2-1.6,7.1l-3.9,14.4h-4.8l-5.1-36.6h4.2l2.2,16.6c0.4,2.9,0.7,6.1,1,9.4
		c0.3,3.4,0.4,5.4,0.4,6c0.4-2.5,1-5.1,1.8-7.8L670.2,171.9z"/>
	<polygon class="st0" points="754.3,197.1 733.2,197.1 733.2,160.5 754.3,160.5 754.3,164.6 737.9,164.6 737.9,175.9 753.3,175.9 
		753.3,180 737.9,180 737.9,193 754.3,193 	"/>
	<path class="st0" d="M825.9,197.1h-5.4l-14.5-30.2h-0.2c0.3,4.6,0.4,8.1,0.4,10.4v19.8H802v-36.6h5.3l14.5,30.1h0.1
		c-0.2-5.1-0.4-8.4-0.4-10.1v-20h4.4V197.1z"/>
	<polygon class="st0" points="887.1,197.1 882.5,197.1 882.5,164.6 872,164.6 872,160.5 897.6,160.5 897.6,164.6 887.1,164.6 	"/>
	<polygon class="st0" points="955.6,179 965.1,160.5 970.1,160.5 958,182.8 958,197.1 953.3,197.1 953.3,183.1 941.1,160.5 
		946.2,160.5 	"/>
</g>
<g id="is">
	<polygon class="st0" points="398.7,197.1 379.3,197.1 379.3,194 386.7,193.5 386.7,164.1 379.3,163.6 379.3,160.5 398.7,160.5 
		398.7,163.6 391.4,164.1 391.4,193.5 398.7,194 	"/>
	<path class="st0" d="M448.1,195.8v-4.4c3.5,1.4,7,2.1,10.4,2.1c5.8,0,8.8-2,8.8-6c0-1.7-0.6-3.1-1.8-4c-1.2-0.9-3.6-2-7.1-3.3
		c-3.5-1.2-6-2.7-7.5-4.4c-1.5-1.7-2.3-3.9-2.3-6.6c0-2.9,1.1-5.2,3.2-6.8c2.1-1.6,5.1-2.5,8.8-2.5c3.8,0,7.3,0.6,10.4,1.9l-1.6,4.1
		c-3.2-1.3-6.2-1.9-9-1.9c-4.9,0-7.3,1.7-7.3,5.2c0,1.7,0.5,3.1,1.6,4.1c1.1,1,3.3,2.1,6.8,3.3c4.1,1.5,6.8,3,8.2,4.5
		c1.4,1.6,2.1,3.6,2.1,6c0,3.2-1.2,5.7-3.5,7.5c-2.3,1.8-5.6,2.7-9.8,2.7C454,197.6,450.6,197,448.1,195.8z"/>
</g>
<g id="it">
	<polygon class="st0" points="186.3,197.1 166.9,197.1 166.9,194 174.3,193.5 174.3,164.1 166.9,163.6 166.9,160.5 186.3,160.5 
		186.3,163.6 178.9,164.1 178.9,193.5 186.3,194 	"/>
	<polygon class="st0" points="249.8,197.1 245.1,197.1 245.1,164.6 234.6,164.6 234.6,160.5 260.2,160.5 260.2,164.6 249.8,164.6 	
		"/>
</g>
</svg>
